<svg t="1747056777103" class="icon" viewBox="0 0 1024 1024" version="1.1" xmlns="http://www.w3.org/2000/svg" p-id="2654" width="256" height="256"><path d="M515.072 924.672s-315.392-43.52-353.28-405.504V214.016s197.632 8.704 353.28-121.856c155.648 130.56 353.28 121.856 353.28 121.856v305.152c-38.4 361.984-353.28 405.504-353.28 405.504z m154.112-526.336h-62.464v-49.152H568.32v49.152h-23.04v28.672h23.04v1.536c0 55.296-2.048 94.72-5.632 118.272-2.56 26.112-9.216 51.2-18.944 74.752v-2.56c-23.552 2.56-46.08 4.608-68.096 5.632v-20.48h61.44v-22.016h-61.44v-17.92h66.56v-24.576h-66.56V522.24h27.136c26.112 1.024 38.912-10.24 37.888-34.304v-34.304H475.648v-17.92h9.728c26.112 2.048 38.4-10.24 36.864-35.328V394.24h27.136v-27.136H522.24v-17.92h-35.328v17.92H429.568v-17.92h-33.792v17.92h-31.232V394.24h31.232v41.984H440.32v17.92H375.296V522.24H440.32v17.92H372.224v24.576H440.32v17.92H377.856v22.016H440.32v22.016H361.472v26.112c67.072 1.024 126.464-3.072 178.688-12.288v27.136c27.136-29.184 45.056-58.88 53.248-90.112 9.216-30.208 13.824-79.872 13.824-150.016h24.576v186.368c1.024 11.776-5.12 17.408-17.92 16.384h-17.92v27.136h31.232c29.184 1.024 43.008-12.8 41.984-40.96V398.336zM475.648 475.648h32.768V486.4c1.024 9.216-4.096 13.824-14.848 13.824h-17.92v-24.576z m-5.12-60.928h-40.96v-20.48h57.344v5.12c0.512 11.264-4.608 15.872-16.384 15.36zM440.32 500.224h-31.232v-24.576H440.32v24.576z" fill="#4084DF" p-id="2655"></path></svg>